<svg width="20" height="20" viewBox="0 0 20 20" fill="none" xmlns="http://www.w3.org/2000/svg">
<rect width="20" height="20" fill="white" fill-opacity="0.01"/>
<path fill-rule="evenodd" clip-rule="evenodd" d="M9.43899 0.296093C9.75031 -0.0101561 10.2497 -0.0101561 10.561 0.296093L19.561 9.14945C19.876 9.45929 19.8801 9.9658 19.5704 10.2808C19.2605 10.5958 18.754 10.5999 18.439 10.2901L17.3333 9.20244V16.6664C17.3333 17.0346 17.0349 17.3331 16.6666 17.3331H3.33334C2.96515 17.3331 2.66667 17.0346 2.66667 16.6664V9.20244L1.56103 10.2901C1.24606 10.5999 0.739542 10.5958 0.4297 10.2808C0.119857 9.9658 0.124017 9.45929 0.438993 9.14945L9.43899 0.296093ZM10 1.9886L16 7.89084V15.9998H13.3333V11.3331C13.3333 10.9649 13.0349 10.6664 12.6667 10.6664H8.66667C8.29849 10.6664 8.00001 10.9649 8.00001 11.3331V15.9998H4.00001V7.89084L10 1.9886ZM9.33334 15.9998H12V11.9997H9.33334V15.9998Z" fill="#7E808A"/>
</svg>
