<svg width="16" height="15" viewBox="0 0 16 15" fill="none" xmlns="http://www.w3.org/2000/svg">
<rect width="15" height="15" transform="translate(0.5)" fill="white" fill-opacity="0.01"/>
<path fill-rule="evenodd" clip-rule="evenodd" d="M7.99991 0.876953C4.34222 0.876953 1.37708 3.8421 1.37708 7.49978C1.37708 11.1575 4.34222 14.1227 7.99991 14.1227C11.6576 14.1227 14.6227 11.1575 14.6227 7.49978C14.6227 3.8421 11.6576 0.876953 7.99991 0.876953ZM2.32707 7.49978C2.32707 4.36677 4.86689 1.82695 7.99991 1.82695C11.1329 1.82695 13.6727 4.36677 13.6727 7.49978C13.6727 10.6328 11.1329 13.1727 7.99991 13.1727C4.86689 13.1727 2.32707 10.6328 2.32707 7.49978ZM8.74992 4.50005C8.74992 4.91426 8.41413 5.25005 7.99992 5.25005C7.58571 5.25005 7.24992 4.91426 7.24992 4.50005C7.24992 4.08583 7.58571 3.75005 7.99992 3.75005C8.41413 3.75005 8.74992 4.08583 8.74992 4.50005ZM6.50003 6.00005H7.00003H8.00003C8.27618 6.00005 8.50003 6.2239 8.50003 6.50005V10.0001H9.00003H9.50003V11.0001H9.00003H8.00003H7.00003H6.50003V10.0001H7.00003H7.50003V7.00005H7.00003H6.50003V6.00005Z" fill="#0D0D0D"/>
</svg>
